solid OpenSCAD_Model
  facet normal 1 -0 0
    outer loop
      vertex 0.0899992 -0.0349998 0.985
      vertex 0.0899992 0.384999 0.495
      vertex 0.0899992 0.384999 0.985
    endloop
  endfacet
  facet normal 1 0 0
    outer loop
      vertex 0.0899992 0.384999 0.495
      vertex 0.0899992 -0.0349998 0.985
      vertex 0.0899992 -0.0349998 0.495
    endloop
  endfacet
  facet normal -0 0 1
    outer loop
      vertex -0.0899992 0.384999 0.985
      vertex 0.0899992 -0.0349998 0.985
      vertex 0.0899992 0.384999 0.985
    endloop
  endfacet
  facet normal 0 0 1
    outer loop
      vertex 0.0899992 -0.0349998 0.985
      vertex -0.0899992 0.384999 0.985
      vertex -0.0899992 -0.0349998 0.985
    endloop
  endfacet
  facet normal 0 0 -1
    outer loop
      vertex 0.0899992 -0.0349998 0.495
      vertex 0.0749998 0 0.495
      vertex 0.0899992 0.384999 0.495
    endloop
  endfacet
  facet normal 0 0 -1
    outer loop
      vertex 0.0899992 -0.0349998 0.495
      vertex -0.0749998 0 0.495
      vertex 0.0749998 0 0.495
    endloop
  endfacet
  facet normal -0 0 -1
    outer loop
      vertex -0.0749998 0 0.495
      vertex -0.0899992 -0.0349998 0.495
      vertex -0.0749998 0.349999 0.495
    endloop
  endfacet
  facet normal 0 0 -1
    outer loop
      vertex -0.0899992 -0.0349998 0.495
      vertex -0.0749998 0 0.495
      vertex 0.0899992 -0.0349998 0.495
    endloop
  endfacet
  facet normal 0 0 -1
    outer loop
      vertex 0.0749998 0.349999 0.495
      vertex 0.0899992 0.384999 0.495
      vertex 0.0749998 0 0.495
    endloop
  endfacet
  facet normal 0 0 -1
    outer loop
      vertex -0.0749998 0.349999 0.495
      vertex 0.0899992 0.384999 0.495
      vertex 0.0749998 0.349999 0.495
    endloop
  endfacet
  facet normal 0 0 -1
    outer loop
      vertex -0.0749998 0.349999 0.495
      vertex -0.0899992 0.384999 0.495
      vertex 0.0899992 0.384999 0.495
    endloop
  endfacet
  facet normal 0 0 -1
    outer loop
      vertex -0.0899992 0.384999 0.495
      vertex -0.0749998 0.349999 0.495
      vertex -0.0899992 -0.0349998 0.495
    endloop
  endfacet
  facet normal -1 0 0
    outer loop
      vertex -0.0899992 -0.0349998 0.495
      vertex -0.0899992 0.384999 0.985
      vertex -0.0899992 0.384999 0.495
    endloop
  endfacet
  facet normal -1 -0 0
    outer loop
      vertex -0.0899992 0.384999 0.985
      vertex -0.0899992 -0.0349998 0.495
      vertex -0.0899992 -0.0349998 0.985
    endloop
  endfacet
  facet normal 0 1 -0
    outer loop
      vertex 0.0899992 0.384999 0.495
      vertex -0.0899992 0.384999 0.985
      vertex 0.0899992 0.384999 0.985
    endloop
  endfacet
  facet normal 0 1 0
    outer loop
      vertex -0.0899992 0.384999 0.985
      vertex 0.0899992 0.384999 0.495
      vertex -0.0899992 0.384999 0.495
    endloop
  endfacet
  facet normal 0 -1 0
    outer loop
      vertex -0.0899992 -0.0349998 0.495
      vertex 0.0899992 -0.0349998 0.985
      vertex -0.0899992 -0.0349998 0.985
    endloop
  endfacet
  facet normal 0 -1 -0
    outer loop
      vertex 0.0899992 -0.0349998 0.985
      vertex -0.0899992 -0.0349998 0.495
      vertex 0.0899992 -0.0349998 0.495
    endloop
  endfacet
  facet normal -1 0 0
    outer loop
      vertex 0.0749998 0 0.495
      vertex 0.0749998 0.349999 0.964999
      vertex 0.0749998 0.349999 0.495
    endloop
  endfacet
  facet normal -1 -0 0
    outer loop
      vertex 0.0749998 0.349999 0.964999
      vertex 0.0749998 0 0.495
      vertex 0.0749998 0 0.964999
    endloop
  endfacet
  facet normal 0 0 -1
    outer loop
      vertex -0.0749998 0 0.964999
      vertex 0.0749998 0.349999 0.964999
      vertex 0.0749998 0 0.964999
    endloop
  endfacet
  facet normal -0 0 -1
    outer loop
      vertex 0.0749998 0.349999 0.964999
      vertex -0.0749998 0 0.964999
      vertex -0.0749998 0.349999 0.964999
    endloop
  endfacet
  facet normal 1 -0 0
    outer loop
      vertex -0.0749998 0 0.964999
      vertex -0.0749998 0.349999 0.495
      vertex -0.0749998 0.349999 0.964999
    endloop
  endfacet
  facet normal 1 0 0
    outer loop
      vertex -0.0749998 0.349999 0.495
      vertex -0.0749998 0 0.964999
      vertex -0.0749998 0 0.495
    endloop
  endfacet
  facet normal 0 -1 0
    outer loop
      vertex -0.0749998 0.349999 0.495
      vertex 0.0749998 0.349999 0.964999
      vertex -0.0749998 0.349999 0.964999
    endloop
  endfacet
  facet normal 0 -1 -0
    outer loop
      vertex 0.0749998 0.349999 0.964999
      vertex -0.0749998 0.349999 0.495
      vertex 0.0749998 0.349999 0.495
    endloop
  endfacet
  facet normal 0 1 -0
    outer loop
      vertex 0.0749998 0 0.495
      vertex -0.0749998 0 0.964999
      vertex 0.0749998 0 0.964999
    endloop
  endfacet
  facet normal 0 1 0
    outer loop
      vertex -0.0749998 0 0.964999
      vertex 0.0749998 0 0.495
      vertex -0.0749998 0 0.495
    endloop
  endfacet
endsolid OpenSCAD_Model
