solid OpenSCAD_Model
  facet normal -0 0 1
    outer loop
      vertex -0.095 0.6 0.495
      vertex -0.075 -0.25 0.495
      vertex -0.075 0.6 0.495
    endloop
  endfacet
  facet normal 0 0 1
    outer loop
      vertex -0.075 -0.25 0.495
      vertex -0.095 0.6 0.495
      vertex -0.095 -0.25 0.495
    endloop
  endfacet
  facet normal 0 0 -1
    outer loop
      vertex -0.095 -0.25 0
      vertex -0.075 0.6 0
      vertex -0.075 -0.25 0
    endloop
  endfacet
  facet normal -0 0 -1
    outer loop
      vertex -0.075 0.6 0
      vertex -0.095 -0.25 0
      vertex -0.095 0.6 0
    endloop
  endfacet
  facet normal 0 -1 0
    outer loop
      vertex -0.095 -0.25 0
      vertex -0.075 -0.25 0.495
      vertex -0.095 -0.25 0.495
    endloop
  endfacet
  facet normal 0 -1 -0
    outer loop
      vertex -0.075 -0.25 0.495
      vertex -0.095 -0.25 0
      vertex -0.075 -0.25 0
    endloop
  endfacet
  facet normal 1 -0 0
    outer loop
      vertex -0.075 -0.25 0.495
      vertex -0.075 0.6 0
      vertex -0.075 0.6 0.495
    endloop
  endfacet
  facet normal 1 0 0
    outer loop
      vertex -0.075 0.6 0
      vertex -0.075 -0.25 0.495
      vertex -0.075 -0.25 0
    endloop
  endfacet
  facet normal 0 1 -0
    outer loop
      vertex -0.075 0.6 0
      vertex -0.095 0.6 0.495
      vertex -0.075 0.6 0.495
    endloop
  endfacet
  facet normal 0 1 0
    outer loop
      vertex -0.095 0.6 0.495
      vertex -0.075 0.6 0
      vertex -0.095 0.6 0
    endloop
  endfacet
  facet normal -1 0 0
    outer loop
      vertex -0.095 -0.25 0
      vertex -0.095 0.6 0.495
      vertex -0.095 0.6 0
    endloop
  endfacet
  facet normal -1 -0 0
    outer loop
      vertex -0.095 0.6 0.495
      vertex -0.095 -0.25 0
      vertex -0.095 -0.25 0.495
    endloop
  endfacet
endsolid OpenSCAD_Model
