solid OpenSCAD_Model
  facet normal -0 0 1
    outer loop
      vertex -0.325 0 0.495
      vertex 0.325 -0.02 0.495
      vertex 0.325 0 0.495
    endloop
  endfacet
  facet normal 0 0 1
    outer loop
      vertex 0.325 -0.02 0.495
      vertex -0.325 0 0.495
      vertex -0.325 -0.02 0.495
    endloop
  endfacet
  facet normal 0 0 -1
    outer loop
      vertex -0.325 -0.02 0
      vertex 0.325 0 0
      vertex 0.325 -0.02 0
    endloop
  endfacet
  facet normal -0 0 -1
    outer loop
      vertex 0.325 0 0
      vertex -0.325 -0.02 0
      vertex -0.325 0 0
    endloop
  endfacet
  facet normal 0 -1 0
    outer loop
      vertex -0.325 -0.02 0
      vertex 0.325 -0.02 0.495
      vertex -0.325 -0.02 0.495
    endloop
  endfacet
  facet normal 0 -1 -0
    outer loop
      vertex 0.325 -0.02 0.495
      vertex -0.325 -0.02 0
      vertex 0.325 -0.02 0
    endloop
  endfacet
  facet normal 1 -0 0
    outer loop
      vertex 0.325 -0.02 0.495
      vertex 0.325 0 0
      vertex 0.325 0 0.495
    endloop
  endfacet
  facet normal 1 0 0
    outer loop
      vertex 0.325 0 0
      vertex 0.325 -0.02 0.495
      vertex 0.325 -0.02 0
    endloop
  endfacet
  facet normal 0 1 -0
    outer loop
      vertex 0.325 0 0
      vertex -0.325 0 0.495
      vertex 0.325 0 0.495
    endloop
  endfacet
  facet normal 0 1 0
    outer loop
      vertex -0.325 0 0.495
      vertex 0.325 0 0
      vertex -0.325 0 0
    endloop
  endfacet
  facet normal -1 0 0
    outer loop
      vertex -0.325 -0.02 0
      vertex -0.325 0 0.495
      vertex -0.325 0 0
    endloop
  endfacet
  facet normal -1 -0 0
    outer loop
      vertex -0.325 0 0.495
      vertex -0.325 -0.02 0
      vertex -0.325 -0.02 0.495
    endloop
  endfacet
endsolid OpenSCAD_Model
